<?xml version="1.0" encoding="UTF-8" standalone="no"?>
<!-- Created with Inkscape (http://www.inkscape.org/) -->

<svg
   xmlns:dc="http://purl.org/dc/elements/1.1/"
   xmlns:cc="http://creativecommons.org/ns#"
   xmlns:rdf="http://www.w3.org/1999/02/22-rdf-syntax-ns#"
   xmlns:svg="http://www.w3.org/2000/svg"
   xmlns="http://www.w3.org/2000/svg"
   xmlns:sodipodi="http://sodipodi.sourceforge.net/DTD/sodipodi-0.dtd"
   xmlns:inkscape="http://www.inkscape.org/namespaces/inkscape"
   width="220"
   height="220"
   viewBox="0 0 62.088889 62.088888"
   version="1.1"
   id="svg90851"
   inkscape:version="0.91 r13725"
   sodipodi:docname="d.svg">
  <defs
     id="defs90845">
    <clipPath
       clipPathUnits="userSpaceOnUse"
       id="clipPath171994">
      <rect
         style="opacity:0.66000001;fill:#00b0ff;fill-opacity:1;stroke:none;stroke-width:5;stroke-linecap:round;stroke-linejoin:round;stroke-miterlimit:4;stroke-dasharray:none;stroke-dashoffset:0;stroke-opacity:1"
         id="rect171996"
         width="360.70697"
         height="215.52615"
         x="1154.7113"
         y="2285.3784"
         rx="2.088433"
         ry="2.088433" />
    </clipPath>
    <clipPath
       clipPathUnits="userSpaceOnUse"
       id="clipPath90806">
      <rect
         style="opacity:0.66000001;fill:#00b0ff;fill-opacity:1;stroke:none;stroke-width:5;stroke-linecap:round;stroke-linejoin:round;stroke-miterlimit:4;stroke-dasharray:none;stroke-dashoffset:0;stroke-opacity:1"
         id="rect90808"
         width="183.2639"
         height="286.61984"
         x="1067.2368"
         y="2274.9014"
         rx="2.0539536"
         ry="2.088433" />
    </clipPath>
    <clipPath
       id="clipPath171994-75"
       clipPathUnits="userSpaceOnUse">
      <rect
         ry="2.088433"
         rx="2.088433"
         y="2285.3784"
         x="1154.7113"
         height="215.52615"
         width="360.70697"
         id="rect171996-3"
         style="opacity:0.66000001;fill:#00b0ff;fill-opacity:1;stroke:none;stroke-width:5;stroke-linecap:round;stroke-linejoin:round;stroke-miterlimit:4;stroke-dasharray:none;stroke-dashoffset:0;stroke-opacity:1" />
    </clipPath>
    <clipPath
       id="clipPath90806-5"
       clipPathUnits="userSpaceOnUse">
      <rect
         ry="2.088433"
         rx="2.0539536"
         y="2274.9014"
         x="1067.2368"
         height="286.61984"
         width="183.2639"
         id="rect90808-6"
         style="opacity:0.66000001;fill:#00b0ff;fill-opacity:1;stroke:none;stroke-width:5;stroke-linecap:round;stroke-linejoin:round;stroke-miterlimit:4;stroke-dasharray:none;stroke-dashoffset:0;stroke-opacity:1" />
    </clipPath>
    <clipPath
       clipPathUnits="userSpaceOnUse"
       id="clipPath171994-7">
      <rect
         style="opacity:0.66000001;fill:#00b0ff;fill-opacity:1;stroke:none;stroke-width:5;stroke-linecap:round;stroke-linejoin:round;stroke-miterlimit:4;stroke-dasharray:none;stroke-dashoffset:0;stroke-opacity:1"
         id="rect171996-5"
         width="360.70697"
         height="215.52615"
         x="1154.7113"
         y="2285.3784"
         rx="2.088433"
         ry="2.088433" />
    </clipPath>
    <clipPath
       clipPathUnits="userSpaceOnUse"
       id="clipPath90806-3">
      <rect
         style="opacity:0.66000001;fill:#00b0ff;fill-opacity:1;stroke:none;stroke-width:5;stroke-linecap:round;stroke-linejoin:round;stroke-miterlimit:4;stroke-dasharray:none;stroke-dashoffset:0;stroke-opacity:1"
         id="rect90808-5"
         width="183.2639"
         height="286.61984"
         x="1067.2368"
         y="2274.9014"
         rx="2.0539536"
         ry="2.088433" />
    </clipPath>
    <clipPath
       id="clipPath171994-753562"
       clipPathUnits="userSpaceOnUse">
      <rect
         ry="2.088433"
         rx="2.088433"
         y="2285.3784"
         x="1154.7113"
         height="215.52615"
         width="360.70697"
         id="rect171996-9"
         style="opacity:0.66000001;fill:#00b0ff;fill-opacity:1;stroke:none;stroke-width:5;stroke-linecap:round;stroke-linejoin:round;stroke-miterlimit:4;stroke-dasharray:none;stroke-dashoffset:0;stroke-opacity:1" />
    </clipPath>
    <clipPath
       id="clipPath90806-1"
       clipPathUnits="userSpaceOnUse">
      <rect
         ry="2.088433"
         rx="2.0539536"
         y="2274.9014"
         x="1067.2368"
         height="286.61984"
         width="183.2639"
         id="rect90808-2"
         style="opacity:0.66000001;fill:#00b0ff;fill-opacity:1;stroke:none;stroke-width:5;stroke-linecap:round;stroke-linejoin:round;stroke-miterlimit:4;stroke-dasharray:none;stroke-dashoffset:0;stroke-opacity:1" />
    </clipPath>
    <clipPath
       clipPathUnits="userSpaceOnUse"
       id="clipPath171994-7-70">
      <rect
         style="opacity:0.66000001;fill:#00b0ff;fill-opacity:1;stroke:none;stroke-width:5;stroke-linecap:round;stroke-linejoin:round;stroke-miterlimit:4;stroke-dasharray:none;stroke-dashoffset:0;stroke-opacity:1"
         id="rect171996-5-9"
         width="360.70697"
         height="215.52615"
         x="1154.7113"
         y="2285.3784"
         rx="2.088433"
         ry="2.088433" />
    </clipPath>
    <clipPath
       clipPathUnits="userSpaceOnUse"
       id="clipPath90806-3-3">
      <rect
         style="opacity:0.66000001;fill:#00b0ff;fill-opacity:1;stroke:none;stroke-width:5;stroke-linecap:round;stroke-linejoin:round;stroke-miterlimit:4;stroke-dasharray:none;stroke-dashoffset:0;stroke-opacity:1"
         id="rect90808-5-6"
         width="183.2639"
         height="286.61984"
         x="1067.2368"
         y="2274.9014"
         rx="2.0539536"
         ry="2.088433" />
    </clipPath>
    <clipPath
       clipPathUnits="userSpaceOnUse"
       id="clipPath171994-753">
      <rect
         style="opacity:0.66000001;fill:#00b0ff;fill-opacity:1;stroke:none;stroke-width:5;stroke-linecap:round;stroke-linejoin:round;stroke-miterlimit:4;stroke-dasharray:none;stroke-dashoffset:0;stroke-opacity:1"
         id="rect171996-56"
         width="360.70697"
         height="215.52615"
         x="1154.7113"
         y="2285.3784"
         rx="2.088433"
         ry="2.088433" />
    </clipPath>
    <clipPath
       clipPathUnits="userSpaceOnUse"
       id="clipPath90806-2">
      <rect
         style="opacity:0.66000001;fill:#00b0ff;fill-opacity:1;stroke:none;stroke-width:5;stroke-linecap:round;stroke-linejoin:round;stroke-miterlimit:4;stroke-dasharray:none;stroke-dashoffset:0;stroke-opacity:1"
         id="rect90808-9"
         width="183.2639"
         height="286.61984"
         x="1067.2368"
         y="2274.9014"
         rx="2.0539536"
         ry="2.088433" />
    </clipPath>
    <clipPath
       id="clipPath171994-75-0"
       clipPathUnits="userSpaceOnUse">
      <rect
         ry="2.088433"
         rx="2.088433"
         y="2285.3784"
         x="1154.7113"
         height="215.52615"
         width="360.70697"
         id="rect171996-3-62"
         style="opacity:0.66000001;fill:#00b0ff;fill-opacity:1;stroke:none;stroke-width:5;stroke-linecap:round;stroke-linejoin:round;stroke-miterlimit:4;stroke-dasharray:none;stroke-dashoffset:0;stroke-opacity:1" />
    </clipPath>
    <clipPath
       id="clipPath90806-5-6"
       clipPathUnits="userSpaceOnUse">
      <rect
         ry="2.088433"
         rx="2.0539536"
         y="2274.9014"
         x="1067.2368"
         height="286.61984"
         width="183.2639"
         id="rect90808-6-1"
         style="opacity:0.66000001;fill:#00b0ff;fill-opacity:1;stroke:none;stroke-width:5;stroke-linecap:round;stroke-linejoin:round;stroke-miterlimit:4;stroke-dasharray:none;stroke-dashoffset:0;stroke-opacity:1" />
    </clipPath>
    <clipPath
       clipPathUnits="userSpaceOnUse"
       id="clipPath171994-7-1">
      <rect
         style="opacity:0.66000001;fill:#00b0ff;fill-opacity:1;stroke:none;stroke-width:5;stroke-linecap:round;stroke-linejoin:round;stroke-miterlimit:4;stroke-dasharray:none;stroke-dashoffset:0;stroke-opacity:1"
         id="rect171996-5-2"
         width="360.70697"
         height="215.52615"
         x="1154.7113"
         y="2285.3784"
         rx="2.088433"
         ry="2.088433" />
    </clipPath>
    <clipPath
       clipPathUnits="userSpaceOnUse"
       id="clipPath90806-3-7">
      <rect
         style="opacity:0.66000001;fill:#00b0ff;fill-opacity:1;stroke:none;stroke-width:5;stroke-linecap:round;stroke-linejoin:round;stroke-miterlimit:4;stroke-dasharray:none;stroke-dashoffset:0;stroke-opacity:1"
         id="rect90808-5-0"
         width="183.2639"
         height="286.61984"
         x="1067.2368"
         y="2274.9014"
         rx="2.0539536"
         ry="2.088433" />
    </clipPath>
    <clipPath
       clipPathUnits="userSpaceOnUse"
       id="clipPath171994-7535">
      <rect
         style="opacity:0.66000001;fill:#00b0ff;fill-opacity:1;stroke:none;stroke-width:5;stroke-linecap:round;stroke-linejoin:round;stroke-miterlimit:4;stroke-dasharray:none;stroke-dashoffset:0;stroke-opacity:1"
         id="rect171996-6"
         width="360.70697"
         height="215.52615"
         x="1154.7113"
         y="2285.3784"
         rx="2.088433"
         ry="2.088433" />
    </clipPath>
    <clipPath
       clipPathUnits="userSpaceOnUse"
       id="clipPath90806-29">
      <rect
         style="opacity:0.66000001;fill:#00b0ff;fill-opacity:1;stroke:none;stroke-width:5;stroke-linecap:round;stroke-linejoin:round;stroke-miterlimit:4;stroke-dasharray:none;stroke-dashoffset:0;stroke-opacity:1"
         id="rect90808-1"
         width="183.2639"
         height="286.61984"
         x="1067.2368"
         y="2274.9014"
         rx="2.0539536"
         ry="2.088433" />
    </clipPath>
    <clipPath
       id="clipPath171994-7-2"
       clipPathUnits="userSpaceOnUse">
      <rect
         ry="2.088433"
         rx="2.088433"
         y="2285.3784"
         x="1154.7113"
         height="215.52615"
         width="360.70697"
         id="rect171996-5-7"
         style="opacity:0.66000001;fill:#00b0ff;fill-opacity:1;stroke:none;stroke-width:5;stroke-linecap:round;stroke-linejoin:round;stroke-miterlimit:4;stroke-dasharray:none;stroke-dashoffset:0;stroke-opacity:1" />
    </clipPath>
    <clipPath
       id="clipPath90806-3-0"
       clipPathUnits="userSpaceOnUse">
      <rect
         ry="2.088433"
         rx="2.0539536"
         y="2274.9014"
         x="1067.2368"
         height="286.61984"
         width="183.2639"
         id="rect90808-5-9"
         style="opacity:0.66000001;fill:#00b0ff;fill-opacity:1;stroke:none;stroke-width:5;stroke-linecap:round;stroke-linejoin:round;stroke-miterlimit:4;stroke-dasharray:none;stroke-dashoffset:0;stroke-opacity:1" />
    </clipPath>
    <clipPath
       id="clipPath171994-753-3"
       clipPathUnits="userSpaceOnUse">
      <rect
         ry="2.088433"
         rx="2.088433"
         y="2285.3784"
         x="1154.7113"
         height="215.52615"
         width="360.70697"
         id="rect171996-56-6"
         style="opacity:0.66000001;fill:#00b0ff;fill-opacity:1;stroke:none;stroke-width:5;stroke-linecap:round;stroke-linejoin:round;stroke-miterlimit:4;stroke-dasharray:none;stroke-dashoffset:0;stroke-opacity:1" />
    </clipPath>
    <clipPath
       id="clipPath90806-2-0"
       clipPathUnits="userSpaceOnUse">
      <rect
         ry="2.088433"
         rx="2.0539536"
         y="2274.9014"
         x="1067.2368"
         height="286.61984"
         width="183.2639"
         id="rect90808-9-6"
         style="opacity:0.66000001;fill:#00b0ff;fill-opacity:1;stroke:none;stroke-width:5;stroke-linecap:round;stroke-linejoin:round;stroke-miterlimit:4;stroke-dasharray:none;stroke-dashoffset:0;stroke-opacity:1" />
    </clipPath>
    <clipPath
       clipPathUnits="userSpaceOnUse"
       id="clipPath171994-75-2">
      <rect
         style="opacity:0.66000001;fill:#00b0ff;fill-opacity:1;stroke:none;stroke-width:5;stroke-linecap:round;stroke-linejoin:round;stroke-miterlimit:4;stroke-dasharray:none;stroke-dashoffset:0;stroke-opacity:1"
         id="rect171996-3-6"
         width="360.70697"
         height="215.52615"
         x="1154.7113"
         y="2285.3784"
         rx="2.088433"
         ry="2.088433" />
    </clipPath>
    <clipPath
       clipPathUnits="userSpaceOnUse"
       id="clipPath90806-5-1">
      <rect
         style="opacity:0.66000001;fill:#00b0ff;fill-opacity:1;stroke:none;stroke-width:5;stroke-linecap:round;stroke-linejoin:round;stroke-miterlimit:4;stroke-dasharray:none;stroke-dashoffset:0;stroke-opacity:1"
         id="rect90808-6-8"
         width="183.2639"
         height="286.61984"
         x="1067.2368"
         y="2274.9014"
         rx="2.0539536"
         ry="2.088433" />
    </clipPath>
    <clipPath
       id="clipPath171994-7-1-7"
       clipPathUnits="userSpaceOnUse">
      <rect
         ry="2.088433"
         rx="2.088433"
         y="2285.3784"
         x="1154.7113"
         height="215.52615"
         width="360.70697"
         id="rect171996-5-2-9"
         style="opacity:0.66000001;fill:#00b0ff;fill-opacity:1;stroke:none;stroke-width:5;stroke-linecap:round;stroke-linejoin:round;stroke-miterlimit:4;stroke-dasharray:none;stroke-dashoffset:0;stroke-opacity:1" />
    </clipPath>
    <clipPath
       id="clipPath90806-3-7-2"
       clipPathUnits="userSpaceOnUse">
      <rect
         ry="2.088433"
         rx="2.0539536"
         y="2274.9014"
         x="1067.2368"
         height="286.61984"
         width="183.2639"
         id="rect90808-5-0-0"
         style="opacity:0.66000001;fill:#00b0ff;fill-opacity:1;stroke:none;stroke-width:5;stroke-linecap:round;stroke-linejoin:round;stroke-miterlimit:4;stroke-dasharray:none;stroke-dashoffset:0;stroke-opacity:1" />
    </clipPath>
    <clipPath
       clipPathUnits="userSpaceOnUse"
       id="clipPath171994-75356">
      <rect
         style="opacity:0.66000001;fill:#00b0ff;fill-opacity:1;stroke:none;stroke-width:5;stroke-linecap:round;stroke-linejoin:round;stroke-miterlimit:4;stroke-dasharray:none;stroke-dashoffset:0;stroke-opacity:1"
         id="rect171996-2"
         width="360.70697"
         height="215.52615"
         x="1154.7113"
         y="2285.3784"
         rx="2.088433"
         ry="2.088433" />
    </clipPath>
    <clipPath
       clipPathUnits="userSpaceOnUse"
       id="clipPath90806-9">
      <rect
         style="opacity:0.66000001;fill:#00b0ff;fill-opacity:1;stroke:none;stroke-width:5;stroke-linecap:round;stroke-linejoin:round;stroke-miterlimit:4;stroke-dasharray:none;stroke-dashoffset:0;stroke-opacity:1"
         id="rect90808-12"
         width="183.2639"
         height="286.61984"
         x="1067.2368"
         y="2274.9014"
         rx="2.0539536"
         ry="2.088433" />
    </clipPath>
    <clipPath
       id="clipPath171994-7-7"
       clipPathUnits="userSpaceOnUse">
      <rect
         ry="2.088433"
         rx="2.088433"
         y="2285.3784"
         x="1154.7113"
         height="215.52615"
         width="360.70697"
         id="rect171996-5-0"
         style="opacity:0.66000001;fill:#00b0ff;fill-opacity:1;stroke:none;stroke-width:5;stroke-linecap:round;stroke-linejoin:round;stroke-miterlimit:4;stroke-dasharray:none;stroke-dashoffset:0;stroke-opacity:1" />
    </clipPath>
    <clipPath
       id="clipPath90806-3-9"
       clipPathUnits="userSpaceOnUse">
      <rect
         ry="2.088433"
         rx="2.0539536"
         y="2274.9014"
         x="1067.2368"
         height="286.61984"
         width="183.2639"
         id="rect90808-5-3"
         style="opacity:0.66000001;fill:#00b0ff;fill-opacity:1;stroke:none;stroke-width:5;stroke-linecap:round;stroke-linejoin:round;stroke-miterlimit:4;stroke-dasharray:none;stroke-dashoffset:0;stroke-opacity:1" />
    </clipPath>
    <clipPath
       id="clipPath171994-753-6"
       clipPathUnits="userSpaceOnUse">
      <rect
         ry="2.088433"
         rx="2.088433"
         y="2285.3784"
         x="1154.7113"
         height="215.52615"
         width="360.70697"
         id="rect171996-56-0"
         style="opacity:0.66000001;fill:#00b0ff;fill-opacity:1;stroke:none;stroke-width:5;stroke-linecap:round;stroke-linejoin:round;stroke-miterlimit:4;stroke-dasharray:none;stroke-dashoffset:0;stroke-opacity:1" />
    </clipPath>
    <clipPath
       id="clipPath90806-2-6"
       clipPathUnits="userSpaceOnUse">
      <rect
         ry="2.088433"
         rx="2.0539536"
         y="2274.9014"
         x="1067.2368"
         height="286.61984"
         width="183.2639"
         id="rect90808-9-2"
         style="opacity:0.66000001;fill:#00b0ff;fill-opacity:1;stroke:none;stroke-width:5;stroke-linecap:round;stroke-linejoin:round;stroke-miterlimit:4;stroke-dasharray:none;stroke-dashoffset:0;stroke-opacity:1" />
    </clipPath>
    <clipPath
       clipPathUnits="userSpaceOnUse"
       id="clipPath171994-75-6">
      <rect
         style="opacity:0.66000001;fill:#00b0ff;fill-opacity:1;stroke:none;stroke-width:5;stroke-linecap:round;stroke-linejoin:round;stroke-miterlimit:4;stroke-dasharray:none;stroke-dashoffset:0;stroke-opacity:1"
         id="rect171996-3-1"
         width="360.70697"
         height="215.52615"
         x="1154.7113"
         y="2285.3784"
         rx="2.088433"
         ry="2.088433" />
    </clipPath>
    <clipPath
       clipPathUnits="userSpaceOnUse"
       id="clipPath90806-5-8">
      <rect
         style="opacity:0.66000001;fill:#00b0ff;fill-opacity:1;stroke:none;stroke-width:5;stroke-linecap:round;stroke-linejoin:round;stroke-miterlimit:4;stroke-dasharray:none;stroke-dashoffset:0;stroke-opacity:1"
         id="rect90808-6-7"
         width="183.2639"
         height="286.61984"
         x="1067.2368"
         y="2274.9014"
         rx="2.0539536"
         ry="2.088433" />
    </clipPath>
    <clipPath
       id="clipPath171994-7-1-9"
       clipPathUnits="userSpaceOnUse">
      <rect
         ry="2.088433"
         rx="2.088433"
         y="2285.3784"
         x="1154.7113"
         height="215.52615"
         width="360.70697"
         id="rect171996-5-2-2"
         style="opacity:0.66000001;fill:#00b0ff;fill-opacity:1;stroke:none;stroke-width:5;stroke-linecap:round;stroke-linejoin:round;stroke-miterlimit:4;stroke-dasharray:none;stroke-dashoffset:0;stroke-opacity:1" />
    </clipPath>
    <clipPath
       id="clipPath90806-3-7-0"
       clipPathUnits="userSpaceOnUse">
      <rect
         ry="2.088433"
         rx="2.0539536"
         y="2274.9014"
         x="1067.2368"
         height="286.61984"
         width="183.2639"
         id="rect90808-5-0-2"
         style="opacity:0.66000001;fill:#00b0ff;fill-opacity:1;stroke:none;stroke-width:5;stroke-linecap:round;stroke-linejoin:round;stroke-miterlimit:4;stroke-dasharray:none;stroke-dashoffset:0;stroke-opacity:1" />
    </clipPath>
  </defs>
  <sodipodi:namedview
     id="base"
     pagecolor="#ffffff"
     bordercolor="#666666"
     borderopacity="1.0"
     inkscape:pageopacity="0.0"
     inkscape:pageshadow="2"
     inkscape:zoom="1.3832356"
     inkscape:cx="-12.459684"
     inkscape:cy="173.30593"
     inkscape:document-units="px"
     inkscape:current-layer="layer1"
     showgrid="false"
     inkscape:window-width="1329"
     inkscape:window-height="744"
     inkscape:window-x="37"
     inkscape:window-y="24"
     inkscape:window-maximized="1"
     units="px"
     inkscape:showpageshadow="false" />
  <metadata
     id="metadata90848">
    <rdf:RDF>
      <cc:Work
         rdf:about="">
        <dc:format>image/svg+xml</dc:format>
        <dc:type
           rdf:resource="http://purl.org/dc/dcmitype/StillImage" />
        <dc:title />
      </cc:Work>
    </rdf:RDF>
  </metadata>
  <g
     inkscape:label="Layer 1"
     inkscape:groupmode="layer"
     id="layer1"
     transform="translate(0,-234.91115)">
    <path
       inkscape:connector-curvature="0"
       id="path172260"
       d="m 45.812305,241.45524 c -11.776868,1.83727 -22.552204,7.39616 -33.064915,12.73663 -4.928788,2.83764 -10.402545,7.56311 -9.891974,13.83168 0.460718,3.84864 2.576882,7.54154 5.45708,10.05462 0.804774,0.59022 2.35884,0.26996 2.866162,0.19819 -2.436056,3.57801 0.118237,8.30089 3.244573,10.53752 1.813127,1.55953 4.504278,2.38369 6.542044,0.74913 3.964926,-1.73604 8.467754,-2.59157 12.106234,-5.12191 0.387749,2.16251 3.022541,4.3976 4.985393,2.42585 7.128449,-4.78644 13.618561,-10.71674 17.947421,-18.21104 1.307527,-2.32747 3.698954,-4.75626 3.193214,-7.58596 -1.128147,-2.53178 -4.759347,-2.33613 -6.73454,-0.96051 1.02622,-3.29346 4.374253,-6.52853 2.741713,-10.16743 -1.6856,-2.01819 -4.688876,-1.7922 -6.907059,-1.26694 1.554234,-2.45393 1.254929,-7.19644 -2.485346,-7.21983 z"
       style="opacity:1;fill:#ffffff;fill-opacity:1;stroke:none;stroke-width:11.96073818" />
    <path
       sodipodi:nodetypes="ccccccccccccccccccccccccc"
       inkscape:connector-curvature="0"
       id="path172262"
       d="m 45.855899,243.15333 c -0.264938,-3e-5 -0.56675,0.0532 -0.908265,0.1699 -2.943897,0.38298 -5.837369,1.18641 -8.611659,2.27089 -5.200614,1.62975 -10.211148,3.79324 -15.078195,6.23848 -5.69656,2.7917 -12.169249,5.29513 -15.535622,11.04213 -2.578472,4.03146 0.04479,8.35833 3.122753,11.52655 0.757496,1.89517 3.190631,0.71269 4.250955,-1.00397 1.696208,-2.70074 1.634224,1.73232 2.680698,3.07999 1.770555,-0.68233 1.23096,-5.15134 3.653702,-3.63554 0.924648,4.17571 3.342475,-1.5938 5.23583,-1.2656 0.0378,2.1091 0.0021,5.66769 -2.482047,6.27338 -2.264007,-3.41386 -2.167205,2.18725 -5.200051,2.29174 -2.285791,-1.35817 -5.723493,-1.97459 -4.978582,1.60143 0.06309,3.28434 2.84189,5.5928 5.559145,6.95053 0.445934,0.22555 0.977002,0.21394 1.440105,0.0513 4.208917,-2.47108 9.325476,-3.0077 13.372061,-5.83066 2.745442,-2.82357 1.679383,2.9052 4.004464,3.04901 3.399274,-2.39961 6.72712,-4.90735 9.877483,-7.62789 4.374769,-4.39684 7.951396,-9.57655 10.936983,-15.00532 2.07346,-3.2822 -3.120167,-2.90383 -4.545947,-1.27527 -3.355425,1.74253 -1.834747,-3.36279 -0.788207,-4.73779 0.781687,-2.0385 2.618687,-4.05297 1.964034,-6.34538 -1.693087,-1.71828 -4.36622,-0.74792 -6.429878,-0.29696 -2.421504,0.97932 -1.9661,-1.40121 -0.750011,-2.48425 1.086222,-1.50683 1.36758,-5.03651 -0.789749,-5.03675 z"
       style="opacity:1;fill:#7e57c2;fill-opacity:1;stroke-width:11.96073818" />
    <g
       id="g3384"
       transform="translate(-39.062047,60.43042)"
       style="fill:#311b92;fill-opacity:1">
      <path
         sodipodi:nodetypes="sccccccccsscsccccs"
         inkscape:connector-curvature="0"
         style="opacity:1;fill:#311b92;fill-opacity:1;stroke-width:11.96073818"
         d="m 84.917946,182.72291 c -0.264938,-3e-5 -0.56675,0.0532 -0.908265,0.1699 -2.943897,0.38298 -5.837369,1.18641 -8.611659,2.27089 -5.200614,1.62975 -10.211148,3.79324 -15.078195,6.23848 -5.69656,2.7917 -12.169249,5.29513 -15.535622,11.04213 -0.64688,1.0114 -0.966334,2.04137 -1.033382,3.067 -0.0043,0.066 -0.0074,0.13201 -0.0097,0.19798 0.0093,0.49351 0.267855,1.70805 2.682884,1.19405 2.999705,-0.63848 2.761352,-3.10191 5.860511,-2.78407 3.09916,0.31788 1.175379,-3.86528 5.801029,-3.41687 4.625654,0.4484 5.475076,-0.50943 6.767683,-2.07577 1.292607,-1.5663 3.007907,-0.70733 5.629603,-1.22303 2.621694,-0.51564 2.09012,-5.05646 5.800369,-4.56833 3.710244,0.48816 7.515171,-1.63678 7.515171,-1.63678 0,0 0.514836,-0.73427 0.489595,-2.06045 0.0406,-0.14205 1.275321,-1.75712 1.275321,-1.75712 0.462056,-1.21215 0.992528,-1.20867 0.957146,-2.80635 -0.08689,-1.02406 -0.558467,-1.85153 -1.602536,-1.85166 z"
         id="path172264" />
      <path
         style="opacity:1;fill:#311b92;fill-opacity:1;stroke-width:3.16461182"
         d="m 68.279201,193.09118 c -3.744836,0.29036 -7.192153,3.75197 -6.751175,7.59901 1.306853,3.37504 6.473866,2.81727 8.460124,0.35009 1.97517,-2.2022 1.732188,-6.27195 -0.894294,-7.81139 -0.259411,-0.0988 -0.538042,-0.13853 -0.814655,-0.13771 z"
         id="path172266"
         inkscape:connector-curvature="0" />
      <path
         style="fill:#311b92;fill-opacity:1;fill-rule:evenodd;stroke:none;stroke-width:0.83730352px;stroke-linecap:butt;stroke-linejoin:miter;stroke-opacity:1"
         d="m 64.268041,207.46605 c 9.875484,-10.0304 18.387653,5.16404 -0.329392,11.01232 l 2.187369,-5.95 -2.816422,-4.5485 z"
         id="path172274"
         inkscape:connector-curvature="0"
         sodipodi:nodetypes="ccccc" />
      <path
         sodipodi:nodetypes="cccczcccccccsccccccccccccccccccccccccccccccccscc"
         inkscape:connector-curvature="0"
         style="opacity:1;fill:#311b92;fill-opacity:1;stroke-width:3.16461182"
         d="m 84.917946,182.72288 c -0.264915,-4e-5 -0.566742,0.0532 -0.908282,0.1699 -2.943888,0.383 -5.837358,1.18641 -8.611645,2.27092 -5.200619,1.62971 -10.211162,3.79321 -15.078183,6.23845 -5.696556,2.7917 -11.233787,4.10668 -15.535639,11.04214 -4.301851,6.93546 3.013844,17.28352 6.10941,12.65784 1.696233,-2.70076 2.898526,-0.40292 3.94502,0.94472 1.770522,-0.68231 1.230964,-5.15134 3.653686,-3.63554 0.924635,4.17574 3.342472,-1.59379 5.235831,-1.26558 0.0378,2.10908 0.0043,5.66767 -2.48206,6.27336 -2.263994,-3.41388 -2.018064,1.11968 -4.156884,1.68107 -2.218971,-0.87303 -4.960552,-1.37733 -4.960552,-1.37733 0,0 -1.875901,1.50373 -1.677033,3.19215 0.405762,3.44505 3.457748,5.9901 6.174991,7.34781 0.445944,0.22554 0.977006,0.21394 1.44011,0.0513 4.208916,-2.47106 9.325476,-3.00769 13.372054,-5.83065 3.223076,-1.58737 1.67937,2.9052 4.004485,3.04902 3.399261,-2.39962 6.727121,-4.90734 9.87748,-7.62789 4.374781,-4.39683 7.951375,-9.57655 10.936975,-15.00534 2.073447,-3.2822 -3.12016,-2.90383 -4.54596,-1.27527 -3.355424,1.74254 -1.83474,-3.36277 -0.7882,-4.73776 0.781707,-2.0385 2.6187,-4.053 1.964034,-6.3454 -1.693087,-1.71828 -4.3662,-0.7479 -6.429882,-0.29695 -2.421491,0.9793 -1.966118,-1.4012 -0.750021,-2.48427 1.086251,-1.50684 1.367605,-5.03649 -0.789735,-5.03675 z m -3.302716,3.83633 c 2.470549,0.62272 -0.35407,3.29566 -1.080347,4.50118 -1.780715,1.68086 0.03738,4.02951 2.156957,3.01674 2.149652,-0.32434 4.46024,-0.92786 6.545754,0.007 -0.899489,3.48616 -3.706948,6.49555 -3.374498,10.26009 0.879569,2.16375 3.703594,1.27242 5.450288,0.88959 -4.768736,7.21971 -8.699103,10.92564 -14.329312,15.66426 -0.50286,-1.10439 0.08427,-3.51998 -2.098766,-3.14471 -2.069629,0.31609 -3.373649,2.18724 -5.385767,2.7711 -4.098397,1.85453 -7.862219,2.98169 -12.034097,4.64471 -2.352385,1.24192 -3.841595,-3.91049 -3.841595,-3.91049 0,0 2.1745,0.53097 2.821519,0.78735 1.698484,0.66656 2.434742,-1.27704 3.337375,-2.75181 1.133696,0.76921 2.934841,2.14192 3.825241,0.009 0.836117,-1.50926 1.954564,-4.22846 2.517908,-6.7749 0.29588,-1.95364 -0.36129,-4.75239 -2.424081,-5.27971 -1.377883,0.31525 -2.931443,4.38709 -3.898467,1.82463 -1.105366,-2.74277 -3.361629,1.58389 -4.361572,2.77879 -1.312047,1.01672 -1.801782,-3.60925 -3.406567,-1.81189 -0.693401,0.83612 -2.431344,2.69303 -2.431344,2.69303 L 47.336213,209.991 c -2.20678,-2.66866 -0.08877,-7.27004 2.495439,-9.36222 9.321102,-5.93026 16.925244,-10.33456 31.783578,-14.06954 z"
         id="path172278" />
      <path
         inkscape:connector-curvature="0"
         id="path172280"
         d="m 75.905508,197.87748 c -1.232152,0.0955 -2.3664,1.23445 -2.221306,2.50024 0.430016,1.11042 2.13007,0.92693 2.783588,0.11515 0.649865,-0.72454 0.569928,-2.0636 -0.294265,-2.57011 -0.08533,-0.0323 -0.177035,-0.0456 -0.268017,-0.0453 z"
         style="opacity:1;fill:#311b92;fill-opacity:1;stroke-width:3.16461182" />
      <path
         style="opacity:1;fill:#311b92;fill-opacity:1;stroke-width:3.16461182"
         d="m 81.749324,201.30511 c -1.23211,0.0955 -2.366358,1.23445 -2.221264,2.50024 0.429972,1.11042 2.130028,0.92693 2.783546,0.11515 0.649864,-0.72453 0.569927,-2.06359 -0.294266,-2.57011 -0.08533,-0.0323 -0.176993,-0.0456 -0.268016,-0.0453 z"
         id="path172282"
         inkscape:connector-curvature="0" />
      <path
         inkscape:connector-curvature="0"
         id="path172284"
         d="m 77.270268,202.48536 c -1.23211,0.0955 -2.366358,1.23445 -2.221264,2.50024 0.429972,1.11042 2.130028,0.92693 2.783545,0.11515 0.649865,-0.72454 0.569927,-2.0636 -0.294223,-2.57011 -0.08537,-0.0323 -0.177035,-0.0456 -0.268058,-0.0453 z"
         style="opacity:1;fill:#311b92;fill-opacity:1;stroke-width:3.16461182" />
    </g>
    <path
       inkscape:connector-curvature="0"
       id="path172270"
       d="m 28.119571,257.04447 c 0.275364,0.0235 0.535034,0.37417 0.661558,0.59681 0.212348,0.40857 0.584734,0.85617 0.415722,1.3444 -0.375112,0.62632 -1.045046,0.99749 -1.684182,1.30687 -0.327698,0.13614 -0.653599,0.28164 -0.997824,0.37182 -0.335168,0.11562 -0.775034,0.10768 -0.972142,-0.23836 -0.224556,-0.45216 0.02383,-0.96433 0.248465,-1.36899 0.362353,-0.56945 0.734475,-1.16896 1.292607,-1.56631 0.258608,-0.11349 0.429782,-0.2875 0.759671,-0.34374 0.09093,-0.0817 0.184336,-0.11032 0.276125,-0.1025 z"
       style="opacity:1;fill:#fafafa;fill-opacity:1;stroke-width:3.16461182"
       sodipodi:nodetypes="cccccccccc" />
    <path
       inkscape:connector-curvature="0"
       style="fill:#9fa8da;fill-opacity:1;fill-rule:evenodd;stroke:none;stroke-width:0.83730352px;stroke-linecap:butt;stroke-linejoin:miter;stroke-opacity:1"
       d="m 31.162401,267.04553 c -1.646062,-0.0302 -3.625294,1.33 -4.451248,2.68037 0.404664,1.02241 0.503641,2.23695 0.352778,3.23306 -0.239526,1.08271 -0.581782,2.1916 -0.957644,3.23049 3.57693,-0.32727 8.42247,-7.182 6.210726,-8.87163 -0.249498,-0.21041 -0.58782,-0.27925 -0.906932,-0.25686 -0.08162,-0.009 -0.164143,-0.0139 -0.24768,-0.0155 z"
       id="path172276" />
  </g>
</svg>
